<svg xmlns="http://www.w3.org/2000/svg" version="1.1" xmlns:xlink="http://www.w3.org/1999/xlink" xmlns:svgjs="http://svgjs.dev/svgjs" viewBox="0 0 800 800" opacity="1"><defs><linearGradient x1="50%" y1="0%" x2="50%" y2="100%" id="uundulate-grad"><stop stop-color="hsl(50, 98%, 60%)" stop-opacity="1" offset="45%"></stop><stop stop-color="hsl(50, 98%, 80%)" stop-opacity="1" offset="100%"></stop></linearGradient></defs><g stroke-width="6" stroke="url(#uundulate-grad)" fill="none"><path d="M954.1516644180324 -86.40506394685826C1058.2806159203049 167.22608076858342 835.4336112221495 891.642872468333 606.7535723391052 1042.8944375084257C378.07353345606066 1194.146002548518 -39.38357071830683 893.2335929610265 -143.51252222057923 639.602448245585C-247.64147372285163 385.97130353014313 -121.74543375484836 -23.283492085600642 106.93460512819604 -174.53505712569313C335.61464401124056 -325.78662216578556 850.0227129157599 -340.0362086622999 954.1516644180324 -86.40506394685826C1058.2806159203049 167.22608076858342 835.4336112221495 891.642872468333 606.7535723391052 1042.8944375084257 "></path><path d="M933.6274733150931 -68.39010791996361C1033.8997969839481 175.84729069490618 819.3063850523909 873.4338308502206 599.095977239089 1019.0834860740133C378.885569425787 1164.733141297806 -23.110160519900205 874.9656357691106 -123.38248418875514 630.7282371542408C-223.65480785761002 386.4908385393711 -102.42158418471797 -7.606372053567384 117.78882362858405 -153.25602727736015C337.9992314418861 -298.9056825011529 833.3551496462383 -312.6275065348333 933.6274733150931 -68.39010791996361C1033.8997969839481 175.84729069490618 819.3063850523909 873.4338308502206 599.095977239089 1019.0834860740133 "></path><path d="M913.1034042824663 -50.375060340334585C1009.5191001179037 184.4685921739632 803.1792809529452 855.2248807848423 591.4385042093854 995.2726261923353C379.6977274658258 1135.3203715998284 -6.836628251181082 856.6977701299288 -103.2523240866185 621.8541176156311C-199.66801992205592 387.01046510133324 -83.09761254427508 8.070839531200136 128.64316419928457 -131.97690587629285C340.3839409428442 -272.02465128378583 816.6877084470289 -285.2187128546324 913.1034042824663 -50.375060340334585C1009.5191001179037 184.4685921739632 803.1792809529452 855.2248807848423 591.4385042093854 995.2726261923353 "></path><path d="M892.5792742146832 -32.36013483101806C985.1383422167032 193.08977158270784 787.0521158183428 837.015808649152 583.7809701445258 971.4616442403451C380.5098244707084 1105.9074798315382 9.436842982381734 838.4297824204348 -83.12222501963817 612.9798760067092C-175.68129302165806 387.5299695929831 -63.77370193898844 23.747929045655383 139.49744373482883 -110.69790654553799C342.768589408646 -245.14374213673125 800.0202062126634 -257.81004124474396 892.5792742146832 -32.36013483101806C985.1383422167032 193.08977158270784 787.0521158183428 837.015808649152 583.7809701445258 971.4616442403451 "></path><path d="M872.0550831117441 -14.345117768967157C960.7575232803465 201.71104254418674 770.9248896485847 818.8068280661957 576.1233750445099 947.6507538410892C381.32186044043476 1076.494679615983 25.710253180788357 820.1618862636753 -62.99218698781402 604.1057259505214C-151.69462715641646 388.0495656373673 -44.4498523688581 39.42511011284478 150.35166223521674 -89.41881566204876C345.15317683929163 -218.26274143694235 783.3526429431417 -230.40127808212117 872.0550831117441 -14.345117768967157C960.7575232803465 201.71104254418674 770.9248896485847 818.8068280661957 576.1233750445099 947.6507538410892 "></path><path d="M851.5309225263829 3.669960328239995C936.3767348615679 210.332374540822 754.7976939964042 800.5979085183958 568.4658104620718 923.8399244769898C382.13392692773925 1047.0819404355836 41.98369389677316 801.8940511420719 -42.86211843841181 595.2316369294899C-127.70793077359667 388.5692227169078 -25.125972281149586 55.102352215190535 161.20591125318288 -68.13966374340328C347.5377947875154 -191.38167970199714 766.685110191198 -202.99245388434213 851.5309225263829 3.669960328239995C936.3767348615679 210.332374540822 754.7976939964042 800.5979085183958 568.4658104620718 923.8399244769898 "></path><path d="M831.0068534937561 21.684946872712658C911.9960379955235 218.9536149847229 738.6705898969583 782.3888974178612 560.8083374323681 900.0290035601556C382.9460849677781 1017.6691097024495 58.25722616549223 783.6261244677339 -22.73195833627517 586.357456355724C-103.72114283804262 389.0887882437137 -5.802000640706694 70.77950276480192 172.0602518238834 -46.860603377492225C349.92250428847353 -164.50070951978637 750.0176689919886 -175.58372123929746 831.0068534937561 21.684946872712658C911.9960379955235 218.9536149847229 738.6705898969583 782.3888974178612 560.8083374323681 900.0290035601556 "></path><path d="M810.482662390817 39.699933417185434C887.6152190591667 227.57485542862378 722.5433637271999 764.1798863173271 553.1507423323521 876.2180826433214C383.7581209375044 988.2562789693159 74.53063636389885 765.3581977933964 -2.6019203044510846 577.4832757819581C-79.73447697280096 389.6083537705198 13.521848929423697 86.4566533144133 182.9144703242714 -25.581543011581118C352.30709171911917 -137.61973933757554 733.3501057224671 -148.1749885942528 810.482662390817 39.699933417185434C887.6152190591667 227.57485542862378 722.5433637271999 764.1798863173271 553.1507423323521 876.2180826433214 "></path><path d="M789.9585933581902 57.714950479236336C863.2345221931223 236.19612639010268 706.4162596277538 745.970905734371 545.4932693026486 852.4071922440658C384.57027897754324 958.8434787537603 90.80416863261797 747.0903016366367 17.528239797685558 568.6091257257704C-55.74768903724686 390.127949814904 32.84582056986653 102.13383438160281 193.76881089497192 -4.302452128091886C354.6918012200772 -110.73873863778658 716.6826645232577 -120.76622543163 789.9585933581902 57.714950479236336C863.2345221931223 236.19612639010268 706.4162596277538 745.970905734371 545.4932693026486 852.4071922440658 "></path><path d="M769.4344632904072 75.72993702370911C838.8537642919218 244.81736683400345 690.2890944931519 727.7618946338366 537.8357352377889 828.5962713272315C385.38237598242586 929.4306480206264 107.07763986618085 728.8223749622989 37.65833886466589 559.7349451520045C-31.760962136849002 390.64751534171 52.169731175153174 117.81098493121408 204.62309043051619 16.976608237819164C357.0764496858791 -83.85776845557581 700.015162288892 -93.35749278658534 769.4344632904072 75.72993702370911C838.8537642919218 244.81736683400345 690.2890944931519 727.7618946338366 537.8357352377889 828.5962713272315 "></path><path d="M748.9102721874679 93.74492356818189C814.4729453555651 253.43860727790434 674.1618683233933 709.5528835333023 530.1781401377727 804.7853504103975C386.1944119521522 900.0178172874928 123.35105006458747 710.5544482879611 57.788376896490036 550.8607645782386C-7.774296271607398 391.1670808685161 71.49358074528357 133.48813548082558 215.4773089309041 38.25566860373027C359.4610371165247 -56.97679827336498 683.3475990193704 -65.94876014154067 748.9102721874679 93.74492356818189C814.4729453555651 253.43860727790434 674.1618683233933 709.5528835333023 530.1781401377727 804.7853504103975 "></path><path d="M728.3861116021067 111.75997114781086C790.0921569367865 262.0599087569615 658.034672671213 691.3439334679242 522.5205755553349 780.9744905287198C387.0064784394567 870.6050475895152 139.62449078057222 692.2865826487796 77.9184454458923 541.9866450396289C16.212400111212332 391.68670743047835 90.81746083299208 149.1653470655931 226.33155794887023 59.53479000479763C361.84565506474837 -30.095767055997953 666.6800662674267 -38.53996646133976 728.3861116021067 111.75997114781086C790.0921569367865 262.0599087569615 658.034672671213 691.3439334679242 522.5205755553349 780.9744905287198 "></path><path d="M707.8620120519017 129.77495769228364C765.7114295531642 270.68114920086236 641.907538054189 673.1349223673899 514.8630720080532 757.1635696118856C387.81860596191746 841.1922168563815 155.89799253171321 674.0186559744418 98.04857503045076 533.1124644658631C40.19915752918831 392.20627295728445 110.14140195585685 164.84249761520448 237.18586800199262 80.81385037070868C364.2303340481284 -3.2147968737871224 650.0125945506393 -11.131233816295037 707.8620120519017 129.77495769228364C765.7114295531642 270.68114920086236 641.907538054189 673.1349223673899 514.8630720080532 757.1635696118856 "></path><path d="M687.3378819841187 147.78994423675636C741.3306716519637 279.30238964476314 625.7803729195867 654.9259112668556 507.20553794319335 733.3526486950516C388.63070296679996 811.7793861232476 172.1714637652761 655.7507293001039 118.17867409743116 524.2382838920972C64.18588442958617 392.72583848409045 129.46531256114343 180.51964816481586 248.04014753753688 102.09291073661979C366.6149825139303 23.66617330842371 633.3450923162737 16.27749882874963 687.3378819841187 147.78994423675636C741.3306716519637 279.30238964476314 625.7803729195867 654.9259112668556 507.20553794319335 733.3526486950516 "></path><path d="M666.8137519163356 165.80496129880726C716.9499137507631 287.92366060624215 609.6532077849845 636.7169306838994 499.5480038783336 709.5417582957957C389.4427999716826 782.3665859076921 188.44493499883896 637.4828331433444 138.3087731644115 515.3641338359095C88.17261132998408 393.24543452847456 148.78922316643008 196.19682923200537 258.8944270730811 123.37200162010902C368.99963097973205 50.54717400821261 616.6775900819082 43.68626199137242 666.8137519163356 165.80496129880726C716.9499137507631 287.92366060624215 609.6532077849845 636.7169306838994 499.5480038783336 709.5417582957957 "></path><path d="M646.2896218485525 183.81994784328003C692.5691558495625 296.5449010501429 593.5260426503824 618.507919583365 491.8904698134738 685.7308373789616C390.2548969765651 752.9537551745582 204.71840623240183 619.2149064690065 158.43887223139188 506.4899532621437C112.15933823038193 393.76500005528055 168.11313377171672 211.87397978161675 269.74870660862535 144.65106198602007C371.38427944553393 77.42814419042344 600.0100878475426 71.09499463641708 646.2896218485525 183.81994784328003C692.5691558495625 296.5449010501429 593.5260426503824 618.507919583365 491.8904698134738 685.7308373789616 "></path><path d="M625.7654765219805 201.83496490533093C668.188382689573 305.16617201162194 577.3988622569912 600.2989390004088 484.2329204898249 661.9199469797059C391.06697872265863 723.5409549590028 220.99186220717564 600.9470103122469 178.56895603958316 497.6158032059559C136.14604987199073 394.2845960996649 187.4370291182143 227.5511608488062 280.6029708853805 165.9301528695093C373.76891265254676 104.30914489021234 583.342570354388 98.50375779903987 625.7654765219805 201.83496490533093C668.188382689573 305.16617201162194 577.3988622569912 600.2989390004088 484.2329204898249 661.9199469797059 "></path><path d="M605.2413464541976 219.84996670859272C643.8076247883724 313.7874277143119 561.271697122389 582.0899431586636 476.57538642496513 638.1090413216607C391.87907572754125 694.1281394846579 237.26533344073852 582.6790988966982 198.69905510656355 488.74163789097906C160.13277677238858 394.80417688525995 206.76093972350088 243.22832665720665 291.45725042092477 187.2092284942094C376.15356111834865 131.19013033121223 566.6750681200226 125.9125057028736 605.2413464541976 219.84996670859272C643.8076247883724 313.7874277143119 561.271697122389 582.0899431586636 476.57538642496513 638.1090413216607 "></path><path d="M584.7172011276255 237.8649532530655C619.4268516283828 322.40866815821266 545.1445167289978 563.8809320581292 468.9178371013163 614.2981204048267C392.6911574736348 664.7153087515242 253.53878941551227 564.4111722223604 218.82913891475482 479.86745731721317C184.11948841399737 395.32374241206594 226.08483506999846 258.905477206818 302.31151469767997 208.48828886012052C378.5381943253615 158.07110051342306 550.0075506268679 153.32123834791827 584.7172011276255 237.8649532530655C619.4268516283828 322.40866815821266 545.1445167289978 563.8809320581292 468.9178371013163 614.2981204048267 "></path><path d="M564.1930710598424 255.87998557390546C595.0460937271823 331.02995437848074 529.0173515943956 545.6719667339621 461.26030303645643 590.4872452643599C393.5032544785174 635.3025237947576 269.81226064907514 546.1432913243898 238.9592379817352 470.99332251981446C208.10621531439523 395.8433537152391 245.4087456752851 274.58267353279655 313.1657942332242 229.7673950023988C380.92284279116325 184.95211647200102 533.3400483925025 180.73001676933012 564.1930710598424 255.87998557390546C595.0460937271823 331.02995437848074 529.0173515943956 545.6719667339621 461.26030303645643 590.4872452643599 "></path><path d="M543.6689257332703 273.8950026359563C570.6653205671928 339.6512253399597 512.8901712010043 527.4629861510059 453.6027537128076 566.6763548651039C394.315336224611 605.8897235792019 286.08571662384895 527.8753951676301 259.0893217899265 462.1191724636267C232.09292695600402 396.36294975962335 264.7326410217827 290.25985459998606 324.0200585099794 251.046485885888C383.3074759981761 211.83311717178998 516.6725308993477 208.1387799319529 543.6689257332703 273.8950026359563C570.6653205671928 339.6512253399597 512.8901712010043 527.4629861510059 453.6027537128076 566.6763548651039 "></path><path d="M523.1447956654872 291.9099891804291C546.2845626659922 348.2724657838605 496.7630060664021 509.2539750504716 445.94521964794785 542.8654339482698C395.1274332294935 576.4768928460682 302.3591878574118 509.60746849329234 279.2194208569069 453.2449918898609C256.0796538564019 396.88251528642934 284.05655162706927 305.93700514959744 334.8743380455236 272.3255462517991C385.6921244639779 238.71408735400075 500.0050286649823 235.54751257699758 523.1447956654872 291.9099891804291C546.2845626659922 348.2724657838605 496.7630060664021 509.2539750504716 445.94521964794785 542.8654339482698 "></path><path d="M502.6206961152824 309.9249909836909C521.9038352823698 356.8937214865505 480.6358714493781 491.0449792087263 438.2877161006661 519.0545282902249C395.9395607519542 547.0640773717234 318.6326896085528 491.3395570777436 299.34955044146534 444.37082657488406C280.06641127437786 397.4020960720245 303.38049274993404 321.6141709579978 345.728648098646 293.60462187649927C388.0768034473579 265.59507279500065 483.3375569481949 262.95626048083136 502.6206961152824 309.9249909836909C521.9038352823698 356.8937214865505 480.6358714493781 491.0449792087263 438.2877161006661 519.0545282902249 "></path><path d="M482.09652027113214 327.93997752816364C497.5230316048021 365.5149619304513 464.5086605384088 472.835968108192 430.63013625943915 495.2436073733909C396.75161198046965 517.6512466385898 334.9061150657485 473.07163040340583 319.47960373207854 435.49664600111817C304.0530923984086 397.9216615988305 322.7043575788535 337.2913215076092 356.58288185782305 314.8836822424103C390.46140613679256 292.4760429772115 466.67000893746217 290.364993125876 482.09652027113214 327.93997752816364C497.5230316048021 365.5149619304513 464.5086605384088 472.835968108192 430.63013625943915 495.2436073733909 "></path><path d="M461.57240546213814 345.9549793314255C473.14228896239064 374.1362176331412 448.3815106625956 454.6269722664467 422.97261745336846 471.43270171534584C397.56372424414127 488.23843116424496 351.17960155810044 454.8037189878571 339.60971805784794 426.6224806861414C328.0398345575955 398.4412423844256 342.0282834429292 352.96848731600966 367.4371766521563 336.1627578671105C392.8460698613835 319.3570284182113 450.0025219618857 317.77374102970975 461.57240546213814 345.9549793314255C473.14228896239064 374.1362176331412 448.3815106625956 454.6269722664467 422.97261745336846 471.43270171534584 "></path><path d="M441.04827539435513 363.9699963934764C448.7615310611901 382.7574885946202 432.25434552799345 436.4179916834905 415.31508338850864 447.62181131609C398.3758212490239 458.8256309486894 367.4530727916633 436.53582283109745 359.73981712482833 417.7483306299536C352.02656145799335 398.9608384288098 361.3521940482158 368.64566838319917 378.2914561877006 357.4418487505997C395.23071832718534 346.23802911800027 433.33501972752015 345.18250419233254 441.04827539435513 363.9699963934764C448.7615310611901 382.7574885946202 432.25434552799345 436.4179916834905 415.31508338850864 447.62181131609 "></path><path d="M420.524130067783 381.98499819673816C424.3807579012005 391.3787442973101 416.1271651346022 418.20899584174526 407.6575340648598 423.810905658045C399.1879029951174 429.4128154743447 383.7265287664371 418.2679114155487 379.8699009330196 408.87416531497684C376.01327309960215 399.4804192144049 380.67608939471336 384.32283419159955 389.14572046445574 378.72092437529983C397.61535153419817 373.1190145590001 416.66750223436554 372.5912520961663 420.524130067783 381.98499819673816C424.3807579012005 391.3787442973101 416.1271651346022 418.20899584174526 407.6575340648598 423.810905658045 "></path></g></svg>