<svg aria-hidden="true" style="position: absolute; width: 0; height: 0; overflow: hidden;" version="1.1" xmlns="http://www.w3.org/2000/svg" xmlns:xlink="http://www.w3.org/1999/xlink">
<defs>
<symbol id="icon-angle-down" viewBox="0 0 32 32">
<path d="M16 22.893c-0.004 0-0.008 0-0.012 0-1.838 0-3.502-0.744-4.708-1.947l-10.893-10.893c-0.242-0.242-0.392-0.577-0.392-0.947 0-0.739 0.599-1.339 1.339-1.339 0.37 0 0.704 0.15 0.947 0.392l10.893 10.893c0.724 0.723 1.723 1.17 2.827 1.17s2.103-0.447 2.827-1.17l10.893-10.893c0.242-0.242 0.577-0.392 0.947-0.392 0.739 0 1.339 0.599 1.339 1.339 0 0.37-0.15 0.704-0.392 0.947l-10.893 10.893c-1.206 1.203-2.87 1.947-4.708 1.947-0.004 0-0.008 0-0.013 0h0.001z"></path>
</symbol>
<symbol id="icon-interrogation" viewBox="0 0 24 24">
<path d="M12,0A12,12,0,1,0,24,12,12.013,12.013,0,0,0,12,0Zm0,22A10,10,0,1,1,22,12,10.011,10.011,0,0,1,12,22Z"/><path d="M12.717,5.063A4,4,0,0,0,8,9a1,1,0,0,0,2,0,2,2,0,0,1,2.371-1.967,2.024,2.024,0,0,1,1.6,1.595,2,2,0,0,1-1,2.125A3.954,3.954,0,0,0,11,14.257V15a1,1,0,0,0,2,0v-.743a1.982,1.982,0,0,1,.93-1.752,4,4,0,0,0-1.213-7.442Z"/><rect x="11" y="17" width="2" height="2" rx="1"/>
</symbol>
<symbol id="icon-clock" viewBox="0 0 24 24">
<path d="M12,0A12,12,0,1,0,24,12,12.013,12.013,0,0,0,12,0Zm0,22A10,10,0,1,1,22,12,10.011,10.011,0,0,1,12,22Z"/><path d="M12,6a1,1,0,0,0-1,1v4.325L7.629,13.437a1,1,0,0,0,1.062,1.7l3.84-2.4A1,1,0,0,0,13,11.879V7A1,1,0,0,0,12,6Z"/>
</symbol>
</defs>
</svg>
