<svg aria-hidden="true" style="position: absolute; width: 0; height: 0; overflow: hidden;" version="1.1" xmlns="http://www.w3.org/2000/svg" xmlns:xlink="http://www.w3.org/1999/xlink">
<defs>
<symbol id="icon-interrogation" viewBox="0 0 24 24">
<path d="M12,0A12,12,0,1,0,24,12,12.013,12.013,0,0,0,12,0Zm0,22A10,10,0,1,1,22,12,10.011,10.011,0,0,1,12,22Z"/><path d="M12.717,5.063A4,4,0,0,0,8,9a1,1,0,0,0,2,0,2,2,0,0,1,2.371-1.967,2.024,2.024,0,0,1,1.6,1.595,2,2,0,0,1-1,2.125A3.954,3.954,0,0,0,11,14.257V15a1,1,0,0,0,2,0v-.743a1.982,1.982,0,0,1,.93-1.752,4,4,0,0,0-1.213-7.442Z"/><rect x="11" y="17" width="2" height="2" rx="1"/>
</symbol>
<symbol id="icon-clock" viewBox="0 0 24 24">
<path d="M12,0A12,12,0,1,0,24,12,12.013,12.013,0,0,0,12,0Zm0,22A10,10,0,1,1,22,12,10.011,10.011,0,0,1,12,22Z"/><path d="M12,6a1,1,0,0,0-1,1v4.325L7.629,13.437a1,1,0,0,0,1.062,1.7l3.84-2.4A1,1,0,0,0,13,11.879V7A1,1,0,0,0,12,6Z"/>
</symbol>
<symbol id="icon-cross" viewBox="0 0 32 32">
<path d="M18.828 16l12.586-12.585c0.781-0.781 0.781-2.048 0-2.829s-2.048-0.781-2.829 0v0l-12.585 12.586-12.585-12.586c-0.781-0.781-2.048-0.781-2.829 0s-0.781 2.048 0 2.829l12.586 12.585-12.586 12.585c-0.781 0.781-0.781 2.048 0 2.829s2.048 0.781 2.829 0l12.585-12.586 12.585 12.586c0.781 0.781 2.048 0.781 2.829 0s0.781-2.048 0-2.829l-12.586-12.585z"></path>
</symbol>
<symbol id="icon-arrow-back" viewBox="0 0 512 512">
<path d="M498.144 341.263c-.266 0-.535-.007-.802-.024l-61.793-3.571c-7.641-.442-13.476-6.992-13.034-14.633.442-7.641 6.965-13.462 14.635-13.035l36.16 2.09-28.364-49.168a13.858 13.858 0 0 1 0-13.849l28.364-49.168-187.782 10.852c-7.669.434-14.191-5.396-14.635-13.035-.441-7.639 5.395-14.191 13.034-14.633l213.415-12.332a13.875 13.875 0 0 1 12.595 6.56 13.86 13.86 0 0 1 .208 14.199l-37.198 64.483 37.2 64.483a13.86 13.86 0 0 1-.208 14.199 13.866 13.866 0 0 1-11.795 6.582z" /><path d="m131.829 255.999 73.361 58.347v84.629L13.857 255.999 205.19 113.023v84.63z" /><path d="m369.132 306.072-164.654-9.999-50.386-40.074 59.726-47.501a13.859 13.859 0 0 0 5.231-10.846v-84.629a13.855 13.855 0 0 0-22.152-11.099L5.562 244.898a13.86 13.86 0 0 0 0 22.202l191.333 142.976a13.85 13.85 0 0 0 14.503 1.289 13.859 13.859 0 0 0 7.649-12.388v-74.252l148.484 9.017c.273.015.543.024.812.024 7.288 0 13.396-5.69 13.823-13.059.441-7.643-5.394-14.193-13.034-14.635zM37.007 255.999l154.328-115.322v50.292l-68.13 54.186a13.859 13.859 0 0 0 0 21.692s65.982 53.767 68.13 54.919v49.559L37.007 255.999z"/>
</symbol>
<symbol id="icon-diarybook" viewBox="0 0 256 256">
<g><path d="m163.8 137.9c0.3 0.1 0.7 0.2 1 0.2h0.1 0.2c0.2 0 0.5-0.1 0.7-0.1 0.1 0 0.2 0 0.3-0.1 0.3-0.1 0.6-0.3 0.8-0.6l16.2-16.8 16.2 16.8c0.2 0.3 0.5 0.4 0.8 0.6 0.1 0 0.2 0.1 0.3 0.1 0.2 0.1 0.5 0.1 0.7 0.1h0.2 0.1c0.3 0 0.7-0.1 1-0.2 0.4-0.2 0.7-0.4 0.9-0.7 0.5-0.6 0.8-1.3 0.8-2.1v-110.1c0-0.8-0.3-1.5-0.8-2.1s-1.3-0.9-2-0.9h-36.4c-0.3 0-0.5 0.1-0.8 0.2-0.1 0-0.2 0-0.3 0.1-1 0.5-1.8 1.5-1.8 2.7v110.2c0.1 1.1 0.8 2.2 1.8 2.7z"/><path d="m218.6 38.7v19.2c5.8 1.9 9.6 3.9 10.9 5.4v150.5c-29.2-4.5-64.2-4.5-93.4 0v-150.4c1.4-1.6 5.4-3.8 11.7-5.7v-19.2c-7.9 2-14.9 4.9-19.9 8.7-11.8-9.1-34.6-12.6-54.9-12.6-29 0-63 7.2-63 27.6v162.5c0 2.8 1.1 5.3 2.9 7.1 1.9 1.8 4.3 2.5 6.7 2 16.1-3.2 34.6-4.8 53.5-4.8s37.4 1.7 53.5 4.8c0.2 0 0.5 0 0.7 0.1h0.5 0.2c0.4 0 0.9 0 1.3-0.1h0.1c16.1-3.2 34.6-4.8 53.5-4.8s37.4 1.7 53.5 4.8c0.5 0.1 0.9 0.1 1.4 0.1 1.9 0 3.8-0.8 5.3-2.2 1.9-1.8 2.9-4.4 2.9-7.1v-162.4c0-12-11.8-19.4-27.4-23.5zm-98.8 175.2c-14.6-2.3-30.5-3.4-46.7-3.4s-32.1 1.2-46.7 3.4v-150.5c3.3-3.7 19.7-10.1 46.7-10.1s43.4 6.5 46.7 10.1v150.5z"/><path d="m41.5 101.4c0 2 1.5 3.7 3.3 3.7h55.4c1.8 0 3.3-1.7 3.3-3.7 0-2.1-1.5-3.7-3.3-3.7h-55.4c-1.8-0.1-3.3 1.6-3.3 3.7z"/><path d="m100.2 128.3h-55.4c-1.8 0-3.3 1.7-3.3 3.7 0 2.1 1.5 3.7 3.3 3.7h55.4c1.8 0 3.3-1.7 3.3-3.7 0-2.1-1.5-3.7-3.3-3.7z"/><path d="m100.2 158.9h-55.4c-1.8 0-3.3 1.7-3.3 3.7s1.5 3.7 3.3 3.7h55.4c1.8 0 3.3-1.7 3.3-3.7s-1.5-3.7-3.3-3.7z"/><path d="m119.8 213.9"/></g>
</symbol>
<symbol id="icon-star" viewBox="0 0 48 48">
<path d="M26.285 2.486l5.407 10.956a2.58 2.58 0 0 0 1.944 1.412l12.091 1.757c2.118.308 2.963 2.91 1.431 4.403l-8.749 8.528a2.58 2.58 0 0 0-.742 2.285l2.065 12.042c.362 2.109-1.852 3.717-3.746 2.722l-10.814-5.685c-.752-.395-1.651-.395-2.403 0l-10.814 5.685c-1.894.996-4.108-.613-3.746-2.722l2.065-12.042a2.58 2.58 0 0 0-.742-2.285L.783 21.014c-1.532-1.494-.687-4.096 1.431-4.403l12.091-1.757a2.58 2.58 0 0 0 1.944-1.412l5.407-10.956c.946-1.919 3.682-1.919 4.629 0z"/>
</symbol>
</defs>
</svg>
