<svg aria-hidden="true" style="position: absolute; width: 0; height: 0; overflow: hidden;" version="1.1" xmlns="http://www.w3.org/2000/svg" xmlns:xlink="http://www.w3.org/1999/xlink">
<defs>
<symbol id="icon-angle-down" viewBox="0 0 32 32">
<path d="M16 22.893c-0.004 0-0.008 0-0.012 0-1.838 0-3.502-0.744-4.708-1.947l-10.893-10.893c-0.242-0.242-0.392-0.577-0.392-0.947 0-0.739 0.599-1.339 1.339-1.339 0.37 0 0.704 0.15 0.947 0.392l10.893 10.893c0.724 0.723 1.723 1.17 2.827 1.17s2.103-0.447 2.827-1.17l10.893-10.893c0.242-0.242 0.577-0.392 0.947-0.392 0.739 0 1.339 0.599 1.339 1.339 0 0.37-0.15 0.704-0.392 0.947l-10.893 10.893c-1.206 1.203-2.87 1.947-4.708 1.947-0.004 0-0.008 0-0.013 0h0.001z"></path>
</symbol>
<symbol id="icon-interrogation" viewBox="0 0 24 24">
<path d="M12,0A12,12,0,1,0,24,12,12.013,12.013,0,0,0,12,0Zm0,22A10,10,0,1,1,22,12,10.011,10.011,0,0,1,12,22Z"/><path d="M12.717,5.063A4,4,0,0,0,8,9a1,1,0,0,0,2,0,2,2,0,0,1,2.371-1.967,2.024,2.024,0,0,1,1.6,1.595,2,2,0,0,1-1,2.125A3.954,3.954,0,0,0,11,14.257V15a1,1,0,0,0,2,0v-.743a1.982,1.982,0,0,1,.93-1.752,4,4,0,0,0-1.213-7.442Z"/><rect x="11" y="17" width="2" height="2" rx="1"/>
</symbol>
<symbol id="icon-clock" viewBox="0 0 24 24">
<path d="M12,0A12,12,0,1,0,24,12,12.013,12.013,0,0,0,12,0Zm0,22A10,10,0,1,1,22,12,10.011,10.011,0,0,1,12,22Z"/><path d="M12,6a1,1,0,0,0-1,1v4.325L7.629,13.437a1,1,0,0,0,1.062,1.7l3.84-2.4A1,1,0,0,0,13,11.879V7A1,1,0,0,0,12,6Z"/>
</symbol>
<symbol id="icon-cross" viewBox="0 0 32 32">
<path d="M18.828 16l12.586-12.585c0.781-0.781 0.781-2.048 0-2.829s-2.048-0.781-2.829 0v0l-12.585 12.586-12.585-12.586c-0.781-0.781-2.048-0.781-2.829 0s-0.781 2.048 0 2.829l12.586 12.585-12.586 12.585c-0.781 0.781-0.781 2.048 0 2.829s2.048 0.781 2.829 0l12.585-12.586 12.585 12.586c0.781 0.781 2.048 0.781 2.829 0s0.781-2.048 0-2.829l-12.586-12.585z"></path>
</symbol>
<symbol id="icon-arrow-back" viewBox="0 0 512 512">
<path d="M498.144 341.263c-.266 0-.535-.007-.802-.024l-61.793-3.571c-7.641-.442-13.476-6.992-13.034-14.633.442-7.641 6.965-13.462 14.635-13.035l36.16 2.09-28.364-49.168a13.858 13.858 0 0 1 0-13.849l28.364-49.168-187.782 10.852c-7.669.434-14.191-5.396-14.635-13.035-.441-7.639 5.395-14.191 13.034-14.633l213.415-12.332a13.875 13.875 0 0 1 12.595 6.56 13.86 13.86 0 0 1 .208 14.199l-37.198 64.483 37.2 64.483a13.86 13.86 0 0 1-.208 14.199 13.866 13.866 0 0 1-11.795 6.582z" /><path d="m131.829 255.999 73.361 58.347v84.629L13.857 255.999 205.19 113.023v84.63z" /><path d="m369.132 306.072-164.654-9.999-50.386-40.074 59.726-47.501a13.859 13.859 0 0 0 5.231-10.846v-84.629a13.855 13.855 0 0 0-22.152-11.099L5.562 244.898a13.86 13.86 0 0 0 0 22.202l191.333 142.976a13.85 13.85 0 0 0 14.503 1.289 13.859 13.859 0 0 0 7.649-12.388v-74.252l148.484 9.017c.273.015.543.024.812.024 7.288 0 13.396-5.69 13.823-13.059.441-7.643-5.394-14.193-13.034-14.635zM37.007 255.999l154.328-115.322v50.292l-68.13 54.186a13.859 13.859 0 0 0 0 21.692s65.982 53.767 68.13 54.919v49.559L37.007 255.999z"/>
</symbol>
</defs>
</svg>
