<svg aria-hidden="true" style="position: absolute; width: 0; height: 0; overflow: hidden;" version="1.1" xmlns="http://www.w3.org/2000/svg" xmlns:xlink="http://www.w3.org/1999/xlink">
<defs>
<symbol id="icon-interrogation" viewBox="0 0 24 24">
<path d="M12,0A12,12,0,1,0,24,12,12.013,12.013,0,0,0,12,0Zm0,22A10,10,0,1,1,22,12,10.011,10.011,0,0,1,12,22Z"/><path d="M12.717,5.063A4,4,0,0,0,8,9a1,1,0,0,0,2,0,2,2,0,0,1,2.371-1.967,2.024,2.024,0,0,1,1.6,1.595,2,2,0,0,1-1,2.125A3.954,3.954,0,0,0,11,14.257V15a1,1,0,0,0,2,0v-.743a1.982,1.982,0,0,1,.93-1.752,4,4,0,0,0-1.213-7.442Z"/><rect x="11" y="17" width="2" height="2" rx="1"/>
</symbol>
<symbol id="icon-clock" viewBox="0 0 24 24">
<path d="M12,0A12,12,0,1,0,24,12,12.013,12.013,0,0,0,12,0Zm0,22A10,10,0,1,1,22,12,10.011,10.011,0,0,1,12,22Z"/><path d="M12,6a1,1,0,0,0-1,1v4.325L7.629,13.437a1,1,0,0,0,1.062,1.7l3.84-2.4A1,1,0,0,0,13,11.879V7A1,1,0,0,0,12,6Z"/>
</symbol>
<symbol id="icon-cross" viewBox="0 0 32 32">
<path d="M18.828 16l12.586-12.585c0.781-0.781 0.781-2.048 0-2.829s-2.048-0.781-2.829 0v0l-12.585 12.586-12.585-12.586c-0.781-0.781-2.048-0.781-2.829 0s-0.781 2.048 0 2.829l12.586 12.585-12.586 12.585c-0.781 0.781-0.781 2.048 0 2.829s2.048 0.781 2.829 0l12.585-12.586 12.585 12.586c0.781 0.781 2.048 0.781 2.829 0s0.781-2.048 0-2.829l-12.586-12.585z"></path>
</symbol>
<symbol id="icon-arrow-back" viewBox="0 0 512 512">
<path d="M498.144 341.263c-.266 0-.535-.007-.802-.024l-61.793-3.571c-7.641-.442-13.476-6.992-13.034-14.633.442-7.641 6.965-13.462 14.635-13.035l36.16 2.09-28.364-49.168a13.858 13.858 0 0 1 0-13.849l28.364-49.168-187.782 10.852c-7.669.434-14.191-5.396-14.635-13.035-.441-7.639 5.395-14.191 13.034-14.633l213.415-12.332a13.875 13.875 0 0 1 12.595 6.56 13.86 13.86 0 0 1 .208 14.199l-37.198 64.483 37.2 64.483a13.86 13.86 0 0 1-.208 14.199 13.866 13.866 0 0 1-11.795 6.582z" /><path d="m131.829 255.999 73.361 58.347v84.629L13.857 255.999 205.19 113.023v84.63z" /><path d="m369.132 306.072-164.654-9.999-50.386-40.074 59.726-47.501a13.859 13.859 0 0 0 5.231-10.846v-84.629a13.855 13.855 0 0 0-22.152-11.099L5.562 244.898a13.86 13.86 0 0 0 0 22.202l191.333 142.976a13.85 13.85 0 0 0 14.503 1.289 13.859 13.859 0 0 0 7.649-12.388v-74.252l148.484 9.017c.273.015.543.024.812.024 7.288 0 13.396-5.69 13.823-13.059.441-7.643-5.394-14.193-13.034-14.635zM37.007 255.999l154.328-115.322v50.292l-68.13 54.186a13.859 13.859 0 0 0 0 21.692s65.982 53.767 68.13 54.919v49.559L37.007 255.999z"/>
</symbol>
<symbol id="icon-diarybook" viewBox="0 0 256 256">
<g><path d="m163.8 137.9c0.3 0.1 0.7 0.2 1 0.2h0.1 0.2c0.2 0 0.5-0.1 0.7-0.1 0.1 0 0.2 0 0.3-0.1 0.3-0.1 0.6-0.3 0.8-0.6l16.2-16.8 16.2 16.8c0.2 0.3 0.5 0.4 0.8 0.6 0.1 0 0.2 0.1 0.3 0.1 0.2 0.1 0.5 0.1 0.7 0.1h0.2 0.1c0.3 0 0.7-0.1 1-0.2 0.4-0.2 0.7-0.4 0.9-0.7 0.5-0.6 0.8-1.3 0.8-2.1v-110.1c0-0.8-0.3-1.5-0.8-2.1s-1.3-0.9-2-0.9h-36.4c-0.3 0-0.5 0.1-0.8 0.2-0.1 0-0.2 0-0.3 0.1-1 0.5-1.8 1.5-1.8 2.7v110.2c0.1 1.1 0.8 2.2 1.8 2.7z"/><path d="m218.6 38.7v19.2c5.8 1.9 9.6 3.9 10.9 5.4v150.5c-29.2-4.5-64.2-4.5-93.4 0v-150.4c1.4-1.6 5.4-3.8 11.7-5.7v-19.2c-7.9 2-14.9 4.9-19.9 8.7-11.8-9.1-34.6-12.6-54.9-12.6-29 0-63 7.2-63 27.6v162.5c0 2.8 1.1 5.3 2.9 7.1 1.9 1.8 4.3 2.5 6.7 2 16.1-3.2 34.6-4.8 53.5-4.8s37.4 1.7 53.5 4.8c0.2 0 0.5 0 0.7 0.1h0.5 0.2c0.4 0 0.9 0 1.3-0.1h0.1c16.1-3.2 34.6-4.8 53.5-4.8s37.4 1.7 53.5 4.8c0.5 0.1 0.9 0.1 1.4 0.1 1.9 0 3.8-0.8 5.3-2.2 1.9-1.8 2.9-4.4 2.9-7.1v-162.4c0-12-11.8-19.4-27.4-23.5zm-98.8 175.2c-14.6-2.3-30.5-3.4-46.7-3.4s-32.1 1.2-46.7 3.4v-150.5c3.3-3.7 19.7-10.1 46.7-10.1s43.4 6.5 46.7 10.1v150.5z"/><path d="m41.5 101.4c0 2 1.5 3.7 3.3 3.7h55.4c1.8 0 3.3-1.7 3.3-3.7 0-2.1-1.5-3.7-3.3-3.7h-55.4c-1.8-0.1-3.3 1.6-3.3 3.7z"/><path d="m100.2 128.3h-55.4c-1.8 0-3.3 1.7-3.3 3.7 0 2.1 1.5 3.7 3.3 3.7h55.4c1.8 0 3.3-1.7 3.3-3.7 0-2.1-1.5-3.7-3.3-3.7z"/><path d="m100.2 158.9h-55.4c-1.8 0-3.3 1.7-3.3 3.7s1.5 3.7 3.3 3.7h55.4c1.8 0 3.3-1.7 3.3-3.7s-1.5-3.7-3.3-3.7z"/><path d="m119.8 213.9"/></g>
</symbol>
<symbol id="icon-star" viewBox="0 0 48 48">
<path d="M26.285 2.486l5.407 10.956a2.58 2.58 0 0 0 1.944 1.412l12.091 1.757c2.118.308 2.963 2.91 1.431 4.403l-8.749 8.528a2.58 2.58 0 0 0-.742 2.285l2.065 12.042c.362 2.109-1.852 3.717-3.746 2.722l-10.814-5.685c-.752-.395-1.651-.395-2.403 0l-10.814 5.685c-1.894.996-4.108-.613-3.746-2.722l2.065-12.042a2.58 2.58 0 0 0-.742-2.285L.783 21.014c-1.532-1.494-.687-4.096 1.431-4.403l12.091-1.757a2.58 2.58 0 0 0 1.944-1.412l5.407-10.956c.946-1.919 3.682-1.919 4.629 0z"/>
</symbol>
<symbol id="icon-multiply" viewBox="0 0 256 256">
<path d="m193.06 155.57c0.334-1.679 0.039-3.517-1.278-5.161-14.991-18.703-31.115-36.796-48.107-54.137 6.106-6.695 12.152-13.446 18.072-20.274 9.912-11.433 24.994-26.328 26.968-41.827 0.093-0.726-0.042-1.349-0.263-1.92 0.05-0.163 0.143-0.292 0.176-0.468 0.271-1.439 0.134-2.545-0.146-3.989 0.396 2.055-0.376-2.196-0.683-2.72-0.506-0.864-1.346-1.691-1.979-2.49-2.536-3.197-5.292-6.226-8.112-9.173-3.665-3.833-11.535-12.673-17.818-10.451-1.828-2.272-5.151-3.214-7.646-0.394-16.481 18.629-35.146 34.924-54.119 50.89-17.961-15.509-36.593-30.136-55.743-43.653-1.07-0.755-2.192-0.374-2.916 0.419-0.971-0.068-1.969 0.145-2.896 0.77-4.731 3.192-8.779 7.646-12.932 11.548-5.044 4.739-10.211 9.354-15.32 14.024-0.674 0.617-1.056 1.338-1.217 2.088-2.354 0.614-3.573 3.956-0.901 5.631 19.087 11.966 35.1 27.953 49.914 45.069-1.992 1.79-4.014 3.548-5.979 5.367-13.436 12.439-26.681 25.389-37.835 39.958-4.923 6.431-16.14 20.297-10.973 29.132 1.047 1.791 3.817 1.855 4.849 0 0.132-0.237 0.283-0.46 0.416-0.696 2.292 4.629 6.075 8.898 9.355 12.25 4.495 4.591 11.863 12.046 18.964 11.42 0.387 1.837 2.996 2.569 4.348 1.191 12.475-12.719 23.739-24.017 38.603-34.358 6.517-4.534 13.184-9.018 19.7-13.704 9.373 11.205 19.061 22.144 29.732 32.137 9.274 8.686 22.869 21.983 36.165 22.373 1.608 0.047 2.812-0.655 3.557-1.697 7.865-3.384 15.068-9.347 20.631-15.772 4.262-4.926 11.147-15.466 5.413-21.383zm-150.17-94.148c1.146 0.615 2.304 1.214 3.48 1.786 0.17 0.153 0.341 0.303 0.511 0.456 0.141 0.388 0.277 0.777 0.54 1.138 0.499 0.684 1.025 1.344 1.53 2.023-1.992-1.84-4.011-3.642-6.061-5.403zm-15.509 107.23c-0.544 0.356-0.988 0.785-1.348 1.255-0.294-0.262-0.584-0.526-0.874-0.791 1.173-0.771 2.319-1.573 3.47-2.367 0.335 0.103 0.677 0.171 1.023 0.215 0.036 0.057 0.077 0.108 0.115 0.162-0.791 0.512-1.597 1.009-2.386 1.526zm88.979-60.55c-0.651-0.487-1.304-0.975-1.949-1.47-2.056-2.269-4.118-4.529-6.19-6.78 2.744 2.721 5.521 5.405 8.354 8.028-0.072 0.073-0.142 0.149-0.215 0.222z"/>
</symbol>
</defs>
</svg>
